<svg xmlns="http://www.w3.org/2000/svg" xmlns:xlink="http://www.w3.org/1999/xlink" width="500" zoomAndPan="magnify" viewBox="0 0 375 374.999991" height="500" preserveAspectRatio="xMidYMid meet" version="1.0"><defs><g/><clipPath id="4d7dce5427"><path d="M 112.5 103 L 262.5 103 L 262.5 163 L 112.5 163 Z M 112.5 103 " clip-rule="nonzero"/></clipPath></defs><g fill="#192840" fill-opacity="1"><g transform="translate(91.100671, 246.149998)"><g><path d="M 9.6875 -12.9375 L 9.6875 0 L 2.34375 0 L 2.34375 -32.25 L 9.6875 -32.25 L 9.6875 -19.390625 L 20.09375 -19.390625 L 20.09375 -32.25 L 27.4375 -32.25 L 27.4375 0 L 20.09375 0 L 20.09375 -12.9375 Z M 9.6875 -12.9375 "/></g></g></g><g fill="#192840" fill-opacity="1"><g transform="translate(119.560784, 246.149998)"><g><path d="M 0.90625 -16.140625 C 0.90625 -20.804688 2.492188 -24.753906 5.671875 -27.984375 C 8.847656 -31.222656 12.675781 -32.84375 17.15625 -32.84375 C 21.664062 -32.84375 25.5 -31.234375 28.65625 -28.015625 C 31.8125 -24.796875 33.390625 -20.835938 33.390625 -16.140625 C 33.390625 -11.421875 31.835938 -7.453125 28.734375 -4.234375 C 25.628906 -1.015625 21.769531 0.59375 17.15625 0.59375 C 12.445312 0.59375 8.5625 -1 5.5 -4.1875 C 2.4375 -7.382812 0.90625 -11.367188 0.90625 -16.140625 Z M 8.828125 -16.140625 C 8.828125 -14.453125 9.085938 -12.910156 9.609375 -11.515625 C 10.140625 -10.117188 11.054688 -8.9375 12.359375 -7.96875 C 13.660156 -7.007812 15.257812 -6.53125 17.15625 -6.53125 C 19.894531 -6.53125 21.960938 -7.46875 23.359375 -9.34375 C 24.753906 -11.21875 25.453125 -13.484375 25.453125 -16.140625 C 25.453125 -18.773438 24.738281 -21.035156 23.3125 -22.921875 C 21.894531 -24.816406 19.84375 -25.765625 17.15625 -25.765625 C 14.5 -25.765625 12.445312 -24.816406 11 -22.921875 C 9.550781 -21.035156 8.828125 -18.773438 8.828125 -16.140625 Z M 8.828125 -16.140625 "/></g></g></g><g fill="#192840" fill-opacity="1"><g transform="translate(152.516673, 246.149998)"><g><path d="M 2.34375 -32.25 L 13.875 -32.25 C 16.976562 -32.25 19.503906 -31.421875 21.453125 -29.765625 C 23.410156 -28.109375 24.390625 -25.742188 24.390625 -22.671875 C 24.390625 -20.296875 23.796875 -18.304688 22.609375 -16.703125 C 21.429688 -15.109375 19.820312 -13.984375 17.78125 -13.328125 L 28.890625 0 L 19.546875 0 L 9.6875 -12.75 L 9.6875 0 L 2.34375 0 Z M 9.6875 -17.9375 L 10.5625 -17.9375 C 11.238281 -17.9375 11.8125 -17.945312 12.28125 -17.96875 C 12.75 -18 13.28125 -18.09375 13.875 -18.25 C 14.476562 -18.40625 14.960938 -18.625 15.328125 -18.90625 C 15.691406 -19.195312 16.003906 -19.617188 16.265625 -20.171875 C 16.523438 -20.722656 16.65625 -21.390625 16.65625 -22.171875 C 16.65625 -22.953125 16.523438 -23.613281 16.265625 -24.15625 C 16.003906 -24.707031 15.691406 -25.125 15.328125 -25.40625 C 14.960938 -25.695312 14.476562 -25.921875 13.875 -26.078125 C 13.28125 -26.234375 12.75 -26.320312 12.28125 -26.34375 C 11.8125 -26.375 11.238281 -26.390625 10.5625 -26.390625 L 9.6875 -26.390625 Z M 9.6875 -17.9375 "/></g></g></g><g fill="#192840" fill-opacity="1"><g transform="translate(179.17847, 246.149998)"><g><path d="M 9.6875 -32.25 L 9.6875 0 L 2.34375 0 L 2.34375 -32.25 Z M 9.6875 -32.25 "/></g></g></g><g fill="#192840" fill-opacity="1"><g transform="translate(189.890025, 246.149998)"><g><path d="M 29.4375 -32.25 L 13.453125 -6.453125 L 28.375 -6.453125 L 28.375 0 L 0.625 0 L 16.578125 -25.796875 L 2.890625 -25.796875 L 2.890625 -32.25 Z M 29.4375 -32.25 "/></g></g></g><g fill="#192840" fill-opacity="1"><g transform="translate(218.623791, 246.149998)"><g><path d="M 0.90625 -16.140625 C 0.90625 -20.804688 2.492188 -24.753906 5.671875 -27.984375 C 8.847656 -31.222656 12.675781 -32.84375 17.15625 -32.84375 C 21.664062 -32.84375 25.5 -31.234375 28.65625 -28.015625 C 31.8125 -24.796875 33.390625 -20.835938 33.390625 -16.140625 C 33.390625 -11.421875 31.835938 -7.453125 28.734375 -4.234375 C 25.628906 -1.015625 21.769531 0.59375 17.15625 0.59375 C 12.445312 0.59375 8.5625 -1 5.5 -4.1875 C 2.4375 -7.382812 0.90625 -11.367188 0.90625 -16.140625 Z M 8.828125 -16.140625 C 8.828125 -14.453125 9.085938 -12.910156 9.609375 -11.515625 C 10.140625 -10.117188 11.054688 -8.9375 12.359375 -7.96875 C 13.660156 -7.007812 15.257812 -6.53125 17.15625 -6.53125 C 19.894531 -6.53125 21.960938 -7.46875 23.359375 -9.34375 C 24.753906 -11.21875 25.453125 -13.484375 25.453125 -16.140625 C 25.453125 -18.773438 24.738281 -21.035156 23.3125 -22.921875 C 21.894531 -24.816406 19.84375 -25.765625 17.15625 -25.765625 C 14.5 -25.765625 12.445312 -24.816406 11 -22.921875 C 9.550781 -21.035156 8.828125 -18.773438 8.828125 -16.140625 Z M 8.828125 -16.140625 "/></g></g></g><g fill="#192840" fill-opacity="1"><g transform="translate(251.579684, 246.149998)"><g><path d="M 9.6875 -20.015625 L 9.6875 0 L 2.34375 0 L 2.34375 -32.25 L 9.6875 -32.25 L 22.515625 -12.234375 L 22.59375 -12.234375 L 22.59375 -32.25 L 29.953125 -32.25 L 29.953125 0 L 22.59375 0 L 9.765625 -20.015625 Z M 9.6875 -20.015625 "/></g></g></g><path fill="#192840" d="M 179.457031 142.175781 C 180.316406 137.582031 183.714844 136.96875 183.714844 136.96875 C 183.714844 136.96875 181.011719 136.925781 177.453125 137.910156 C 173.195312 139.101562 163.535156 138.363281 161.410156 138.15625 L 161.410156 138.117188 C 161.285156 138.117188 161.121094 138.117188 161 138.117188 L 161 138.15625 C 158.871094 138.363281 149.210938 139.101562 144.957031 137.910156 C 141.394531 136.925781 138.695312 136.96875 138.695312 136.96875 C 138.695312 136.96875 142.089844 137.625 142.949219 142.175781 C 143.808594 146.765625 144.015625 157.507812 139.347656 160.703125 C 139.347656 160.703125 140.945312 160.703125 144.464844 158.246094 C 147.289062 156.277344 158.707031 156.726562 161.039062 156.851562 L 161.039062 156.890625 C 161.039062 156.890625 161.121094 156.890625 161.246094 156.890625 C 161.367188 156.890625 161.449219 156.890625 161.449219 156.890625 L 161.449219 156.851562 C 163.78125 156.726562 175.242188 156.277344 178.023438 158.246094 C 181.546875 160.703125 183.140625 160.703125 183.140625 160.703125 C 178.394531 157.507812 178.597656 146.726562 179.457031 142.175781 Z M 179.457031 142.175781 " fill-opacity="1" fill-rule="nonzero"/><path fill="#192840" d="M 232.089844 142.175781 C 232.949219 137.582031 236.347656 136.96875 236.347656 136.96875 C 236.347656 136.96875 233.644531 136.925781 230.085938 137.910156 C 225.828125 139.101562 216.167969 138.363281 214.042969 138.15625 L 214.042969 138.117188 C 213.917969 138.117188 213.753906 138.117188 213.632812 138.117188 L 213.632812 138.15625 C 211.503906 138.363281 201.84375 139.101562 197.589844 137.910156 C 194.027344 136.925781 191.328125 136.96875 191.328125 136.96875 C 191.328125 136.96875 194.722656 137.625 195.582031 142.175781 C 196.441406 146.765625 196.648438 157.507812 191.980469 160.703125 C 191.980469 160.703125 193.578125 160.703125 197.097656 158.246094 C 199.921875 156.277344 211.339844 156.726562 213.671875 156.851562 L 213.671875 156.890625 C 213.671875 156.890625 213.753906 156.890625 213.878906 156.890625 C 214 156.890625 214.082031 156.890625 214.082031 156.890625 L 214.082031 156.851562 C 216.414062 156.726562 227.875 156.277344 230.660156 158.246094 C 234.179688 160.703125 235.773438 160.703125 235.773438 160.703125 C 231.066406 157.507812 231.273438 146.726562 232.089844 142.175781 Z M 232.089844 142.175781 " fill-opacity="1" fill-rule="nonzero"/><g clip-path="url(#4d7dce5427)"><path fill="#192840" d="M 195.335938 106.550781 C 195.992188 102.492188 179.007812 102.492188 179.664062 106.550781 C 179.664062 106.550781 138.898438 110.976562 113.359375 121.839844 C 112.785156 122.085938 112.5 122.742188 112.746094 123.359375 L 128.214844 162.097656 L 136.238281 162.097656 L 125.964844 132.625 C 125.761719 132.007812 126.089844 131.3125 126.703125 131.148438 C 132.59375 129.300781 160.222656 121.226562 187.480469 121.226562 C 214.738281 121.226562 242.363281 129.34375 248.257812 131.148438 C 248.871094 131.351562 249.238281 132.007812 248.992188 132.625 L 238.761719 162.097656 L 246.785156 162.097656 L 262.253906 123.316406 C 262.5 122.742188 262.214844 122.046875 261.640625 121.800781 C 236.0625 110.976562 195.335938 106.550781 195.335938 106.550781 Z M 195.335938 106.550781 " fill-opacity="1" fill-rule="nonzero"/></g><path fill="#192840" d="M 257.261719 201.699219 C 257.261719 201.699219 246.332031 190.097656 219.691406 199.28125 C 193.046875 208.464844 176.550781 209.691406 164.355469 201.902344 C 164.355469 201.902344 174.382812 217.195312 202.417969 209.160156 C 230.453125 201.125 245.761719 195.835938 257.261719 201.699219 Z M 257.261719 201.699219 " fill-opacity="1" fill-rule="nonzero"/><path fill="#192840" d="M 117.617188 184.890625 C 117.617188 184.890625 128.460938 173.742188 154.289062 183.128906 C 180.113281 192.515625 196.15625 193.953125 208.1875 186.570312 C 208.1875 186.570312 198.160156 201.332031 170.984375 193.050781 C 143.808594 184.769531 128.953125 179.316406 117.617188 184.890625 Z M 117.617188 184.890625 " fill-opacity="1" fill-rule="nonzero"/><path fill="#192840" d="M 186.90625 173.25 C 186.90625 173.25 193.292969 181.53125 211.257812 177.308594 C 229.226562 173.085938 240.070312 173.371094 247.519531 179.234375 C 247.519531 179.234375 241.996094 168.574219 223.167969 171.976562 C 204.339844 175.378906 194.027344 177.839844 186.90625 173.25 Z M 186.90625 173.25 " fill-opacity="1" fill-rule="nonzero"/><g fill="#192840" fill-opacity="1"><g transform="translate(101.978868, 260.240227)"><g><path d="M 6.875 0 L 6.875 -3.859375 L 2.328125 -3.859375 L 2.328125 0 L 1.25 0 L 1.25 -8.59375 L 2.328125 -8.59375 L 2.328125 -4.890625 L 6.875 -4.890625 L 6.875 -8.59375 L 7.953125 -8.59375 L 7.953125 0 Z M 6.875 0 "/></g></g></g><g fill="#192840" fill-opacity="1"><g transform="translate(113.650076, 260.240227)"><g><path d="M 5.15625 0.15625 C 4.28125 0.15625 3.507812 -0.03125 2.84375 -0.40625 C 2.175781 -0.789062 1.65625 -1.316406 1.28125 -1.984375 C 0.90625 -2.660156 0.71875 -3.429688 0.71875 -4.296875 C 0.71875 -5.171875 0.90625 -5.941406 1.28125 -6.609375 C 1.65625 -7.273438 2.175781 -7.796875 2.84375 -8.171875 C 3.507812 -8.554688 4.28125 -8.75 5.15625 -8.75 C 6.03125 -8.75 6.800781 -8.554688 7.46875 -8.171875 C 8.132812 -7.796875 8.65625 -7.273438 9.03125 -6.609375 C 9.414062 -5.941406 9.609375 -5.171875 9.609375 -4.296875 C 9.609375 -3.429688 9.414062 -2.660156 9.03125 -1.984375 C 8.65625 -1.316406 8.132812 -0.789062 7.46875 -0.40625 C 6.800781 -0.03125 6.03125 0.15625 5.15625 0.15625 Z M 1.8125 -4.296875 C 1.8125 -3.628906 1.953125 -3.039062 2.234375 -2.53125 C 2.515625 -2.03125 2.90625 -1.632812 3.40625 -1.34375 C 3.914062 -1.0625 4.5 -0.921875 5.15625 -0.921875 C 5.8125 -0.921875 6.390625 -1.0625 6.890625 -1.34375 C 7.390625 -1.632812 7.78125 -2.03125 8.0625 -2.53125 C 8.34375 -3.039062 8.484375 -3.628906 8.484375 -4.296875 C 8.484375 -4.960938 8.34375 -5.546875 8.0625 -6.046875 C 7.78125 -6.554688 7.390625 -6.953125 6.890625 -7.234375 C 6.390625 -7.523438 5.8125 -7.671875 5.15625 -7.671875 C 4.5 -7.671875 3.914062 -7.523438 3.40625 -7.234375 C 2.90625 -6.953125 2.515625 -6.554688 2.234375 -6.046875 C 1.953125 -5.546875 1.8125 -4.960938 1.8125 -4.296875 Z M 1.8125 -4.296875 "/></g></g></g><g fill="#192840" fill-opacity="1"><g transform="translate(126.412237, 260.240227)"><g><path d="M 3.328125 0 L 3.328125 -7.5625 L 0.421875 -7.5625 L 0.421875 -8.59375 L 7.296875 -8.59375 L 7.296875 -7.5625 L 4.40625 -7.5625 L 4.40625 0 Z M 3.328125 0 "/></g></g></g><g fill="#192840" fill-opacity="1"><g transform="translate(136.600245, 260.240227)"><g><path d="M 1.25 0 L 1.25 -8.59375 L 6.46875 -8.59375 L 6.46875 -7.578125 L 2.328125 -7.578125 L 2.328125 -4.875 L 6.15625 -4.875 L 6.15625 -3.875 L 2.328125 -3.875 L 2.328125 -1 L 6.59375 -1 L 6.59375 0 Z M 1.25 0 "/></g></g></g><g fill="#192840" fill-opacity="1"><g transform="translate(146.457289, 260.240227)"><g><path d="M 1.25 0 L 1.25 -8.59375 L 2.328125 -8.59375 L 2.328125 -1.03125 L 6.5 -1.03125 L 6.5 0 Z M 1.25 0 "/></g></g></g><g fill="#192840" fill-opacity="1"><g transform="translate(155.799501, 260.240227)"><g/></g></g><g fill="#192840" fill-opacity="1"><g transform="translate(161.305002, 260.240227)"><g><path d="M 1.25 0 L 1.25 -8.59375 L 4.53125 -8.59375 C 5.125 -8.59375 5.640625 -8.476562 6.078125 -8.25 C 6.523438 -8.019531 6.867188 -7.703125 7.109375 -7.296875 C 7.359375 -6.890625 7.484375 -6.398438 7.484375 -5.828125 C 7.484375 -5.128906 7.300781 -4.550781 6.9375 -4.09375 C 6.582031 -3.644531 6.085938 -3.34375 5.453125 -3.1875 L 7.609375 0 L 6.3125 0 L 4.21875 -3.078125 L 2.328125 -3.078125 L 2.328125 0 Z M 2.328125 -4.109375 L 4.40625 -4.109375 C 5.03125 -4.109375 5.515625 -4.253906 5.859375 -4.546875 C 6.203125 -4.847656 6.375 -5.273438 6.375 -5.828125 C 6.375 -6.367188 6.203125 -6.789062 5.859375 -7.09375 C 5.515625 -7.40625 5.03125 -7.5625 4.40625 -7.5625 L 2.328125 -7.5625 Z M 2.328125 -4.109375 "/></g></g></g><g fill="#192840" fill-opacity="1"><g transform="translate(172.118157, 260.240227)"><g><path d="M 1.25 0 L 1.25 -8.59375 L 6.46875 -8.59375 L 6.46875 -7.578125 L 2.328125 -7.578125 L 2.328125 -4.875 L 6.15625 -4.875 L 6.15625 -3.875 L 2.328125 -3.875 L 2.328125 -1 L 6.59375 -1 L 6.59375 0 Z M 1.25 0 "/></g></g></g><g fill="#192840" fill-opacity="1"><g transform="translate(181.975205, 260.240227)"><g><path d="M 4.109375 0.15625 C 3.421875 0.15625 2.820312 0.0390625 2.3125 -0.1875 C 1.8125 -0.425781 1.425781 -0.753906 1.15625 -1.171875 C 0.882812 -1.585938 0.742188 -2.078125 0.734375 -2.640625 L 1.8125 -2.640625 C 1.832031 -2.085938 2.050781 -1.65625 2.46875 -1.34375 C 2.894531 -1.03125 3.441406 -0.875 4.109375 -0.875 C 4.710938 -0.875 5.191406 -0.988281 5.546875 -1.21875 C 5.898438 -1.457031 6.078125 -1.789062 6.078125 -2.21875 C 6.078125 -2.625 5.90625 -2.945312 5.5625 -3.1875 C 5.21875 -3.425781 4.660156 -3.632812 3.890625 -3.8125 C 2.835938 -4.0625 2.0625 -4.382812 1.5625 -4.78125 C 1.070312 -5.1875 0.828125 -5.71875 0.828125 -6.375 C 0.828125 -7.101562 1.101562 -7.679688 1.65625 -8.109375 C 2.207031 -8.535156 2.957031 -8.75 3.90625 -8.75 C 4.863281 -8.75 5.625 -8.503906 6.1875 -8.015625 C 6.75 -7.535156 7.035156 -6.878906 7.046875 -6.046875 L 5.96875 -6.046875 C 5.96875 -6.554688 5.78125 -6.960938 5.40625 -7.265625 C 5.03125 -7.566406 4.53125 -7.71875 3.90625 -7.71875 C 3.289062 -7.71875 2.804688 -7.59375 2.453125 -7.34375 C 2.109375 -7.101562 1.9375 -6.78125 1.9375 -6.375 C 1.9375 -6.019531 2.097656 -5.722656 2.421875 -5.484375 C 2.742188 -5.242188 3.320312 -5.023438 4.15625 -4.828125 C 5.25 -4.554688 6.03125 -4.21875 6.5 -3.8125 C 6.96875 -3.40625 7.203125 -2.882812 7.203125 -2.25 C 7.203125 -1.507812 6.921875 -0.921875 6.359375 -0.484375 C 5.796875 -0.0546875 5.046875 0.15625 4.109375 0.15625 Z M 4.109375 0.15625 "/></g></g></g><g fill="#192840" fill-opacity="1"><g transform="translate(192.371601, 260.240227)"><g><path d="M 1.25 0 L 1.25 -8.59375 L 6.46875 -8.59375 L 6.46875 -7.578125 L 2.328125 -7.578125 L 2.328125 -4.875 L 6.15625 -4.875 L 6.15625 -3.875 L 2.328125 -3.875 L 2.328125 -1 L 6.59375 -1 L 6.59375 0 Z M 1.25 0 "/></g></g></g><g fill="#192840" fill-opacity="1"><g transform="translate(202.228648, 260.240227)"><g><path d="M 1.25 0 L 1.25 -8.59375 L 4.53125 -8.59375 C 5.125 -8.59375 5.640625 -8.476562 6.078125 -8.25 C 6.523438 -8.019531 6.867188 -7.703125 7.109375 -7.296875 C 7.359375 -6.890625 7.484375 -6.398438 7.484375 -5.828125 C 7.484375 -5.128906 7.300781 -4.550781 6.9375 -4.09375 C 6.582031 -3.644531 6.085938 -3.34375 5.453125 -3.1875 L 7.609375 0 L 6.3125 0 L 4.21875 -3.078125 L 2.328125 -3.078125 L 2.328125 0 Z M 2.328125 -4.109375 L 4.40625 -4.109375 C 5.03125 -4.109375 5.515625 -4.253906 5.859375 -4.546875 C 6.203125 -4.847656 6.375 -5.273438 6.375 -5.828125 C 6.375 -6.367188 6.203125 -6.789062 5.859375 -7.09375 C 5.515625 -7.40625 5.03125 -7.5625 4.40625 -7.5625 L 2.328125 -7.5625 Z M 2.328125 -4.109375 "/></g></g></g><g fill="#192840" fill-opacity="1"><g transform="translate(213.041803, 260.240227)"><g><path d="M 3.625 0 L 0.203125 -8.59375 L 1.359375 -8.59375 L 2.78125 -4.96875 L 4.140625 -1.5625 L 5.46875 -4.96875 L 6.90625 -8.59375 L 8.046875 -8.59375 L 4.640625 0 Z M 3.625 0 "/></g></g></g><g fill="#192840" fill-opacity="1"><g transform="translate(223.756906, 260.240227)"><g><path d="M 0.203125 0 L 3.734375 -8.59375 L 4.75 -8.59375 L 8.28125 0 L 7.140625 0 L 6.328125 -1.953125 L 2.140625 -1.953125 L 1.359375 0 Z M 2.5625 -2.953125 L 5.921875 -2.953125 L 4.25 -7.078125 Z M 2.5625 -2.953125 "/></g></g></g><g fill="#192840" fill-opacity="1"><g transform="translate(234.704907, 260.240227)"><g><path d="M 3.328125 0 L 3.328125 -7.5625 L 0.421875 -7.5625 L 0.421875 -8.59375 L 7.296875 -8.59375 L 7.296875 -7.5625 L 4.40625 -7.5625 L 4.40625 0 Z M 3.328125 0 "/></g></g></g><g fill="#192840" fill-opacity="1"><g transform="translate(244.892917, 260.240227)"><g><path d="M 1.25 0 L 1.25 -8.59375 L 2.328125 -8.59375 L 2.328125 0 Z M 1.25 0 "/></g></g></g><g fill="#192840" fill-opacity="1"><g transform="translate(250.937766, 260.240227)"><g><path d="M 5.15625 0.15625 C 4.28125 0.15625 3.507812 -0.03125 2.84375 -0.40625 C 2.175781 -0.789062 1.65625 -1.316406 1.28125 -1.984375 C 0.90625 -2.660156 0.71875 -3.429688 0.71875 -4.296875 C 0.71875 -5.171875 0.90625 -5.941406 1.28125 -6.609375 C 1.65625 -7.273438 2.175781 -7.796875 2.84375 -8.171875 C 3.507812 -8.554688 4.28125 -8.75 5.15625 -8.75 C 6.03125 -8.75 6.800781 -8.554688 7.46875 -8.171875 C 8.132812 -7.796875 8.65625 -7.273438 9.03125 -6.609375 C 9.414062 -5.941406 9.609375 -5.171875 9.609375 -4.296875 C 9.609375 -3.429688 9.414062 -2.660156 9.03125 -1.984375 C 8.65625 -1.316406 8.132812 -0.789062 7.46875 -0.40625 C 6.800781 -0.03125 6.03125 0.15625 5.15625 0.15625 Z M 1.8125 -4.296875 C 1.8125 -3.628906 1.953125 -3.039062 2.234375 -2.53125 C 2.515625 -2.03125 2.90625 -1.632812 3.40625 -1.34375 C 3.914062 -1.0625 4.5 -0.921875 5.15625 -0.921875 C 5.8125 -0.921875 6.390625 -1.0625 6.890625 -1.34375 C 7.390625 -1.632812 7.78125 -2.03125 8.0625 -2.53125 C 8.34375 -3.039062 8.484375 -3.628906 8.484375 -4.296875 C 8.484375 -4.960938 8.34375 -5.546875 8.0625 -6.046875 C 7.78125 -6.554688 7.390625 -6.953125 6.890625 -7.234375 C 6.390625 -7.523438 5.8125 -7.671875 5.15625 -7.671875 C 4.5 -7.671875 3.914062 -7.523438 3.40625 -7.234375 C 2.90625 -6.953125 2.515625 -6.554688 2.234375 -6.046875 C 1.953125 -5.546875 1.8125 -4.960938 1.8125 -4.296875 Z M 1.8125 -4.296875 "/></g></g></g><g fill="#192840" fill-opacity="1"><g transform="translate(263.699931, 260.240227)"><g><path d="M 1.25 0 L 1.25 -8.59375 L 2.265625 -8.59375 L 7.015625 -1.859375 L 7.015625 -8.59375 L 8.078125 -8.59375 L 8.078125 0 L 7.0625 0 L 2.3125 -6.71875 L 2.3125 0 Z M 1.25 0 "/></g></g></g></svg>